Coordinates
version=1
nRows=21
nColumns=22
inDegrees=yes

Units are S.I. units (second, meters, Newtons, ...)
If the header above contains a line with 'inDegrees', this indicates whether rotational values are in degrees (yes) or radians (no).

endheader
time	pelvis_tilt	pelvis_list	pelvis_rotation	pelvis_tx	pelvis_ty	pelvis_tz	hip_flexion_r	hip_adduction_r	hip_rotation_r	knee_angle_r	ankle_angle_r	subtalar_angle_r	hip_flexion_l	hip_adduction_l	hip_rotation_l	knee_angle_l	ankle_angle_l	subtalar_angle_l	lumbar_extension	lumbar_bending	lumbar_rotation
      0.01000000	      0.33796390	      3.17404245	    176.52045408	      0.09288894	      0.94441047	      1.18835321	     -0.36320260	      3.78051113	    -14.32951362	     -8.24622627	      9.39244194	      2.13489976	      6.13990905	     -3.96472813	     -4.96813534	    -20.24399366	     14.44586118	     -4.60133961	     -6.20989453	      0.47141718	     -6.31634998
      0.02000000	      0.35417859	      3.12172021	    176.48370440	      0.09278303	      0.94443823	      1.18850138	     -0.34967364	      3.71072535	    -14.30613632	     -8.24142436	      9.37116981	      2.20583208	      6.07815237	     -3.89637789	     -5.03779708	    -20.11591564	     14.42999657	     -4.51563323	     -6.19550768	      0.42183388	     -6.26040766
      0.03000000	      0.36132427	      3.07705901	    176.44247636	      0.09266424	      0.94448677	      1.18867111	     -0.34498747	      3.64675888	    -14.28637509	     -8.24002555	      9.38160090	      2.24248894	      5.99623023	     -3.83441504	     -5.12068710	    -19.97236786	     14.38770640	     -4.48270907	     -6.19718798	      0.38280203	     -6.20255710
      0.04000000	      0.36623178	      3.03394998	    176.39813175	      0.09254978	      0.94453523	      1.18885765	     -0.33736351	      3.58216014	    -14.25900412	     -8.24794962	      9.38792355	      2.26275623	      5.90789878	     -3.77121666	     -5.19847820	    -19.82292754	     14.36011002	     -4.47119562	     -6.20755866	      0.34708563	     -6.14619847
      0.05000000	      0.36818794	      2.99745092	    176.35019478	      0.09245999	      0.94458131	      1.18904956	     -0.32408512	      3.52312218	    -14.22272276	     -8.26939426	      9.39686147	      2.27697315	      5.81952396	     -3.71359044	     -5.27249147	    -19.67879845	     14.33289389	     -4.47021226	     -6.22974559	      0.31896327	     -6.09035323
      0.06000000	      0.37024445	      2.97012175	    176.30234364	      0.09239880	      0.94462055	      1.18924067	     -0.30161991	      3.47300999	    -14.18058933	     -8.30496765	      9.40399550	      2.28682221	      5.74039495	     -3.66558063	     -5.33511791	    -19.54957797	     14.31253917	     -4.47442468	     -6.26107118	      0.30055415	     -6.04036445
      0.07000000	      0.37375181	      2.95236236	    176.25800640	      0.09238110	      0.94464788	      1.18943789	     -0.26821441	      3.43286494	    -14.13485934	     -8.35336033	      9.41052444	      2.29286308	      5.67654473	     -3.62768991	     -5.38620574	    -19.44020159	     14.29622778	     -4.48198004	     -6.30111464	      0.29248624	     -6.00326447
      0.08000000	      0.37997308	      2.93980825	    176.21707265	      0.09239790	      0.94466472	      1.18963982	     -0.22161397	      3.39753236	    -14.08914778	     -8.41665209	      9.41509826	      2.29422705	      5.62866887	     -3.59543403	     -5.42393470	    -19.35050595	     14.28385506	     -4.49151414	     -6.34771304	      0.28971645	     -5.97275281
      0.09000000	      0.38839160	      2.92985917	    176.18111268	      0.09244468	      0.94467469	      1.18985821	     -0.16395858	      3.36357085	    -14.04431762	     -8.49240491	      9.42219610	      2.29063244	      5.59631474	     -3.56545789	     -5.45305311	    -19.27935321	     14.27211584	     -4.50337359	     -6.39923437	      0.28910736	     -5.95076512
      0.10000000	      0.39951691	      2.92035072	    176.14836918	      0.09252477	      0.94467511	      1.19009702	     -0.09283798	      3.32747598	    -14.00143812	     -8.58416511	      9.43181837	      2.28184056	      5.57688554	     -3.53512349	     -5.47452539	    -19.22111228	     14.26134574	     -4.51772575	     -6.45788203	      0.28932797	     -5.93713179
      0.11000000	      0.41177503	      2.91042065	    176.12150574	      0.09260736	      0.94466859	      1.19035802	     -0.01528771	      3.28900001	    -13.96271869	     -8.68644107	      9.44680591	      2.26916044	      5.56874914	     -3.50327386	     -5.48993065	    -19.17792488	     14.25176555	     -4.53490958	     -6.51844533	      0.28812502	     -5.93281518
      0.12000000	      0.42413061	      2.89988175	    176.09976960	      0.09269445	      0.94465620	      1.19064762	      0.06702389	      3.24743858	    -13.93024533	     -8.79712255	      9.46753779	      2.25432930	      5.56802270	     -3.46922802	     -5.49965035	    -19.14617276	     14.24576240	     -4.55449063	     -6.58330736	      0.28692850	     -5.93506165
      0.13000000	      0.43571241	      2.88808642	    176.08104363	      0.09276769	      0.94463512	      1.19096321	      0.15252208	      3.20102064	    -13.90414018	     -8.91862496	      9.49995257	      2.23715104	      5.57203270	     -3.43211639	     -5.50689697	    -19.12397089	     14.24420222	     -4.57873239	     -6.65068229	      0.28374822	     -5.94339063
      0.14000000	      0.44477589	      2.87856438	    176.06878925	      0.09281824	      0.94460810	      1.19131209	      0.23372421	      3.15522085	    -13.88469539	     -9.04045780	      9.53871609	      2.21968193	      5.57889896	     -3.39566703	     -5.51142021	    -19.11327739	     14.25000135	     -4.60541595	     -6.72087534	      0.28512797	     -5.96070942
      0.15000000	      0.44493968	      2.88503809	    176.06636957	      0.09283245	      0.94459179	      1.19168867	      0.28760188	      3.12909761	    -13.84973573	     -9.13402165	      9.54462084	      2.21297232	      5.58123670	     -3.37509854	     -5.50836063	    -19.11486416	     14.25762300	     -4.61442886	     -6.80024376	      0.30611185	     -6.00440067
      0.16000000	      0.45357281	      2.86660311	    176.05633584	      0.09281627	      0.94453385	      1.19210330	      0.38111996	      3.06252082	    -13.87780650	     -9.28923216	      9.63676720	      2.19560106	      5.59613971	     -3.32485011	     -5.51939455	    -19.12402045	     14.29206334	     -4.65892874	     -6.86450619	      0.29949520	     -6.01201843
      0.17000000	      0.46622313	      2.86254420	    176.06048596	      0.09277017	      0.94446505	      1.19255439	      0.46235083	      3.01445501	    -13.88634846	     -9.41848444	      9.70363081	      2.18124594	      5.62800265	     -3.28906742	     -5.51149855	    -19.15788193	     14.32421113	     -4.71580908	     -6.92212766	      0.31334274	     -6.05690833
      0.18000000	      0.47794793	      2.86578895	    176.06887998	      0.09268251	      0.94438914	      1.19303287	      0.53599541	      2.97265524	    -13.90631690	     -9.54128100	      9.76039242	      2.17719131	      5.66274129	     -3.25958648	     -5.50029583	    -19.20334356	     14.37227196	     -4.77491738	     -6.97604374	      0.33730869	     -6.10873651
      0.19000000	      0.49040543	      2.87155170	    176.08043610	      0.09255820	      0.94430398	      1.19353546	      0.60669054	      2.93112704	    -13.93143532	     -9.66354648	      9.82051766	      2.18467498	      5.70239373	     -3.23122147	     -5.48286070	    -19.26038978	     14.42831117	     -4.83895753	     -7.02545940	      0.36566159	     -6.16657801
      0.20000000	      0.48710810	      2.88375424	    176.07902989	      0.09238048	      0.94425672	      1.19402783	      0.64254859	      2.89913085	    -13.90408361	     -9.75693500	      9.82932398	      2.18839970	      5.71136302	     -3.20747470	     -5.46644533	    -19.30430596	     14.45151721	     -4.85679631	     -7.08614502	      0.40066922	     -6.22055943
      0.21000000	      0.51939824	      2.88417451	    176.09532899	      0.09221775	      0.94411136	      1.19457161	      0.75168782	      2.84162596	    -13.99309226	     -9.91954104	      9.96081915	      2.22835933	      5.78654463	     -3.17195988	     -5.44274097	    -19.39105379	     14.57012757	     -4.96810471	     -7.10834720	      0.42258305	     -6.27382878
